<svg width="165" height="42" viewBox="0 0 165 42" fill="none" xmlns="http://www.w3.org/2000/svg">
<path d="M152.162 14.0723C155.528 14.0723 158.322 15.3682 160.543 17.96C162.798 20.5182 163.926 23.6485 163.926 27.3511V36.2374C163.926 37.0116 163.892 37.6006 163.825 38.0045C163.791 38.3748 163.657 38.7955 163.421 39.2668C162.95 40.1756 161.637 40.63 159.483 40.63C157.093 40.63 155.713 40.0073 155.343 38.7619C155.141 38.1897 155.04 37.3313 155.04 36.1869V27.3006C155.04 25.9206 154.636 24.8435 153.828 24.0693C153.054 23.2951 151.994 22.908 150.647 22.908C149.334 22.908 148.257 23.3119 147.416 24.1198C146.608 24.9276 146.204 25.9879 146.204 27.3006V36.2374C146.204 37.0116 146.17 37.6006 146.103 38.0045C146.069 38.3748 145.918 38.7955 145.649 39.2668C145.211 40.1756 143.915 40.63 141.761 40.63C139.64 40.63 138.344 40.1756 137.873 39.2668C137.638 38.7619 137.486 38.3243 137.419 37.954C137.385 37.5501 137.368 36.9611 137.368 36.1869V18.3134C137.368 17.5729 137.385 17.0175 137.419 16.6473C137.486 16.2433 137.654 15.8058 137.924 15.3345C138.395 14.493 139.691 14.0723 141.811 14.0723C143.865 14.0723 145.127 14.4594 145.598 15.2335C145.935 15.8058 146.103 16.4958 146.103 17.3036C146.238 17.068 146.541 16.7314 147.012 16.2938C147.483 15.8562 147.938 15.5028 148.375 15.2335C149.52 14.4594 150.782 14.0723 152.162 14.0723Z" fill="#4B4B4B"/>
<path d="M124.559 16.8997C124.761 15.0147 126.09 14.0723 128.548 14.0723C129.86 14.0723 130.836 14.1732 131.476 14.3752C132.116 14.5772 132.553 14.9306 132.789 15.4355C133.058 15.9404 133.209 16.3948 133.243 16.7987C133.31 17.169 133.344 17.7412 133.344 18.5154V36.1869C133.344 36.9611 133.31 37.5501 133.243 37.954C133.209 38.3243 133.075 38.7619 132.839 39.2668C132.368 40.1419 131.207 40.5795 129.355 40.5795C127.538 40.5795 126.309 40.3607 125.67 39.9231C125.064 39.4519 124.71 38.7787 124.609 37.9035C123.364 39.6875 121.277 40.5795 118.349 40.5795C115.454 40.5795 112.761 39.2499 110.27 36.5908C107.779 33.9317 106.534 30.8518 106.534 27.3511C106.534 23.8168 107.779 20.7369 110.27 18.1115C112.795 15.4523 115.555 14.1228 118.551 14.1228C119.695 14.1228 120.738 14.3247 121.681 14.7286C122.623 15.1326 123.28 15.5196 123.65 15.8899C124.02 16.2265 124.323 16.5631 124.559 16.8997ZM115.37 27.4016C115.37 28.5124 115.807 29.5222 116.682 30.431C117.558 31.3062 118.618 31.7438 119.863 31.7438C121.109 31.7438 122.135 31.2894 122.943 30.3805C123.785 29.4717 124.205 28.4787 124.205 27.4016C124.205 26.2908 123.801 25.2642 122.994 24.3217C122.219 23.3793 121.159 22.908 119.813 22.908C118.5 22.908 117.423 23.3793 116.581 24.3217C115.774 25.2642 115.37 26.2908 115.37 27.4016Z" fill="#4B4B4B"/>
<path d="M97.1337 30.9849L98.0425 30.3286C99.187 29.6554 99.9948 29.3188 100.466 29.3188C101.509 29.3188 102.637 30.2612 103.849 32.1462C104.589 33.3243 104.96 34.2668 104.96 34.9736C104.96 35.6805 104.724 36.2695 104.253 36.7408C103.815 37.212 103.293 37.6328 102.688 38.003C102.082 38.3733 101.493 38.7267 100.92 39.0633C100.382 39.3999 99.2543 39.8375 97.5376 40.3761C95.821 40.9146 94.1548 41.1839 92.5391 41.1839C90.9571 41.1839 89.3414 40.9819 87.6921 40.578C86.0764 40.1404 84.3934 39.4336 82.6431 38.4574C80.9264 37.4476 79.378 36.2359 77.998 34.8222C76.6179 33.3748 75.4735 31.5403 74.5647 29.3188C73.6895 27.0635 73.2519 24.6232 73.2519 21.9977C73.2519 19.3722 73.6895 16.9992 74.5647 14.8786C75.4398 12.7244 76.5506 10.9572 77.897 9.57716C79.2771 8.16344 80.8422 6.98534 82.5926 6.04286C85.8912 4.22523 89.2068 3.31641 92.5391 3.31641C94.1211 3.31641 95.72 3.56886 97.3356 4.07376C98.985 4.545 100.23 5.03306 101.072 5.53796L102.284 6.24482C102.89 6.61509 103.361 6.91803 103.697 7.15365C104.573 7.86051 105.01 8.66834 105.01 9.57716C105.01 10.4523 104.657 11.378 103.95 12.3541C102.637 14.1718 101.459 15.0806 100.416 15.0806C99.8097 15.0806 98.9513 14.7103 97.8406 13.9698C96.4268 12.8254 94.5419 12.2531 92.1857 12.2531C89.9978 12.2531 87.8435 13.0105 85.7229 14.5252C84.7131 15.2657 83.8716 16.3092 83.1984 17.6556C82.5252 19.002 82.1887 20.5335 82.1887 22.2502C82.1887 23.9332 82.5252 25.4479 83.1984 26.7943C83.8716 28.1407 84.73 29.2009 85.7734 29.9751C87.8267 31.4562 89.9641 32.1967 92.1857 32.1967C93.2291 32.1967 94.2053 32.062 95.1141 31.7928C96.0566 31.5235 96.7298 31.2542 97.1337 30.9849Z" fill="#4B4B4B"/>
<path d="M61.6566 3.01362C61.9259 2.50872 62.3803 2.15529 63.0198 1.95333C63.6593 1.75137 64.5008 1.65039 65.5443 1.65039C66.6214 1.65039 67.4798 1.75137 68.1193 1.95333C68.7588 2.15529 69.1964 2.50872 69.432 3.01362C69.7013 3.51852 69.8528 3.97293 69.8864 4.37685C69.9538 4.74711 69.9874 5.31933 69.9874 6.09351V36.236C69.9874 37.0102 69.9538 37.5993 69.8864 38.0032C69.8528 38.3735 69.7013 38.7942 69.432 39.2654C68.9271 40.1743 67.4966 40.6287 65.1404 40.6287C62.8178 40.6287 61.5219 39.804 61.2527 38.1547C59.8389 39.7703 57.8698 40.5782 55.3453 40.5782C52.3159 40.5782 49.5558 39.2654 47.065 36.64C44.5741 33.9808 43.3287 30.9009 43.3287 27.4003C43.3287 23.866 44.5741 20.7693 47.065 18.1101C49.5895 15.451 52.3496 14.1214 55.3453 14.1214C57.8362 14.1214 59.7716 14.9629 61.1517 16.6459V6.04302C61.1517 5.26884 61.1685 4.69662 61.2022 4.32636C61.2695 3.92244 61.421 3.48486 61.6566 3.01362ZM53.4772 30.4297C54.3524 31.3385 55.4126 31.7929 56.6581 31.7929C57.9035 31.7929 58.9301 31.3385 59.738 30.4297C60.5795 29.5209 61.0002 28.5279 61.0002 27.4508C61.0002 26.34 60.5963 25.3134 59.7884 24.3709C59.0143 23.4284 57.954 22.9572 56.6076 22.9572C55.2612 22.9572 54.1841 23.4284 53.3762 24.3709C52.5684 25.2797 52.1645 26.2895 52.1645 27.4003C52.1645 28.5111 52.602 29.5209 53.4772 30.4297Z" fill="#4B4B4B"/>
<path d="M30.9646 18.5141C30.9646 17.7399 30.9814 17.1677 31.0151 16.7974C31.0824 16.3935 31.2339 15.9391 31.4695 15.4342C31.9407 14.559 33.2534 14.1214 35.4077 14.1214C37.0234 14.1214 38.1678 14.4075 38.841 14.9798C39.4132 15.451 39.7162 16.1747 39.7498 17.1508C39.7835 17.4874 39.8003 17.9755 39.8003 18.615V36.2865C39.8003 37.0607 39.7667 37.6498 39.6993 38.0537C39.6657 38.4239 39.5142 38.8615 39.2449 39.3664C38.8074 40.2416 37.5114 40.6792 35.3572 40.6792C33.2366 40.6792 31.9407 40.2247 31.4695 39.3159C31.2339 38.811 31.0824 38.3735 31.0151 38.0032C30.9814 37.6329 30.9646 37.0439 30.9646 36.236V18.5141ZM39.2449 9.1734C39.0093 9.64464 38.5717 9.98124 37.9322 10.1832C37.2927 10.3852 36.4343 10.4861 35.3572 10.4861C34.3137 10.4861 33.4722 10.3852 32.8327 10.1832C32.1932 9.98124 31.7388 9.62781 31.4695 9.12291C31.2339 8.61801 31.0824 8.18043 31.0151 7.81017C30.9814 7.40625 30.9646 6.8172 30.9646 6.04302C30.9646 5.26884 30.9814 4.69662 31.0151 4.32636C31.0824 3.92244 31.2339 3.48486 31.4695 3.01362C31.9407 2.1048 33.2534 1.65039 35.4077 1.65039C37.5283 1.65039 38.8074 2.1048 39.2449 3.01362C39.5142 3.51852 39.6657 3.97293 39.6993 4.37685C39.7667 4.74711 39.8003 5.31933 39.8003 6.09351C39.8003 6.86769 39.7667 7.45674 39.6993 7.86066C39.6657 8.23092 39.5142 8.6685 39.2449 9.1734Z" fill="#4B4B4B"/>
<path d="M15.8539 22.0992C21.0038 27.0472 24.6559 30.7666 26.8102 33.2575C27.921 34.5029 28.4764 35.5632 28.4764 36.4383C28.4764 37.2798 27.8032 38.2896 26.4568 39.4677C25.1104 40.6122 23.9996 41.1844 23.1244 41.1844C22.2829 41.1844 21.2563 40.4775 20.0445 39.0638L8.93673 26.3908V36.2364C8.93673 37.0442 8.90307 37.6333 8.83575 38.0035C8.80209 38.3738 8.65062 38.8114 8.38134 39.3163C7.9101 40.2251 6.59736 40.6795 4.44312 40.6795C2.08692 40.6795 0.70686 40.04 0.30294 38.7609C0.10098 38.2223 0 37.364 0 36.1859V8.11345C0 7.33927 0.01683 6.76705 0.0504899 6.3968C0.11781 5.99287 0.28611 5.53846 0.55539 5.03357C1.02663 4.12474 2.33937 3.67033 4.49361 3.67033C6.84981 3.67033 8.2467 4.29304 8.68428 5.53846C8.85258 6.11068 8.93673 6.98584 8.93673 8.16394V17.8075C13.5145 12.6576 17.2171 8.43323 20.0445 5.13454C21.2226 3.75448 22.2493 3.06445 23.1244 3.06445C23.9996 3.06445 25.1104 3.6535 26.4568 4.8316C27.8032 5.97604 28.4764 6.98584 28.4764 7.861C28.4764 8.70251 27.9715 9.71231 26.9617 10.8904C25.0094 13.1456 21.98 16.2423 17.8735 20.1806L15.8539 22.0992Z" fill="#4B4B4B"/>
<path d="M127.298 6.2433C137.591 -1.81173 151.967 -2.09939 162.574 5.53725L163.485 6.19252C164.428 6.87143 164.641 8.18621 163.963 9.12905C163.284 10.0719 161.969 10.2864 161.026 9.60756L160.116 8.95131C151.028 2.40828 138.711 2.65536 129.892 9.55678C128.977 10.2728 127.655 10.1113 126.939 9.19643C126.223 8.28152 126.384 6.95941 127.298 6.2433Z" fill="#C3E99B"/>
</svg>
